<svg width="40" height="40" viewBox="0 0 40 40" fill="none" xmlns="http://www.w3.org/2000/svg">
<path fill-rule="evenodd" clip-rule="evenodd" d="M15.438 16.0558H20.2756C22.6422 16.0558 24.5619 14.1371 24.5619 11.7695H19.7243C17.3577 11.7695 15.438 13.6883 15.438 16.0558Z" fill="#71717A"/>
<path fill-rule="evenodd" clip-rule="evenodd" d="M11.7937 21.8016C11.7937 25.3524 14.6718 28.2305 18.2226 28.2305C20.9952 28.2305 23.3578 26.476 24.2594 24.0169H25.2258C26.8718 24.0169 28.2064 22.6823 28.2064 21.0363C28.2064 19.3902 26.8718 18.0557 25.2258 18.0557H11.7937V21.8026V21.8016ZM24.5938 22.6644C24.6316 22.3818 24.6516 22.0941 24.6516 21.8016V19.4061H25.2258C26.1254 19.4061 26.8549 20.1356 26.8549 21.0353C26.8549 21.9349 26.1254 22.6644 25.2258 22.6644H24.5928H24.5938Z" fill="#71717A"/>
</svg>
