<svg width="20" height="20" viewBox="0 0 20 20" fill="none" xmlns="http://www.w3.org/2000/svg">
<path d="M13.75 4H16.75C17.1642 4 17.5 4.33579 17.5 4.75V16.75C17.5 17.1642 17.1642 17.5 16.75 17.5H3.25C2.83579 17.5 2.5 17.1642 2.5 16.75V4.75C2.5 4.33579 2.83579 4 3.25 4H6.25V3.25C6.25 2.83579 6.58579 2.5 7 2.5C7.41421 2.5 7.75 2.83579 7.75 3.25V4H12.25V3.25C12.25 2.83579 12.5858 2.5 13 2.5C13.4142 2.5 13.75 2.83579 13.75 3.25V4ZM4 8.5V16H16V8.5H4ZM5.5 10.75C5.5 10.3358 5.83579 10 6.25 10C6.66421 10 7 10.3358 7 10.75C7 11.1642 6.66421 11.5 6.25 11.5C5.83579 11.5 5.5 11.1642 5.5 10.75ZM9.25 10.75C9.25 10.3358 9.58579 10 10 10C10.4142 10 10.75 10.3358 10.75 10.75C10.75 11.1642 10.4142 11.5 10 11.5C9.58579 11.5 9.25 11.1642 9.25 10.75ZM13 10.75C13 10.3358 13.3358 10 13.75 10C14.1642 10 14.5 10.3358 14.5 10.75C14.5 11.1642 14.1642 11.5 13.75 11.5C13.3358 11.5 13 11.1642 13 10.75Z" fill="white"/>
</svg>
