<svg width="140" height="140" viewBox="0 0 140 140" fill="none" xmlns="http://www.w3.org/2000/svg">
<path d="M72.1875 8.75C40.5016 8.75 26.25 36.8922 26.25 56.875V85.3125C26.25 88.2087 30.625 88.2066 30.625 85.3125V56.875C30.625 38.7078 43.5203 13.125 72.1875 13.125C100.855 13.125 113.75 38.7078 113.75 56.875V102.812C113.75 105.709 118.125 105.707 118.125 102.812V56.875C118.125 36.8922 103.871 8.75 72.1875 8.75Z" fill="#FF808B"/>
<path d="M26.25 109.373V122.498C26.25 125.394 30.625 125.392 30.625 122.498V109.373C30.625 106.477 26.25 106.479 26.25 109.373Z" fill="#FF808B"/>
<path d="M79.4772 87.8751C75.3319 91.5807 69.0559 91.6157 64.8778 87.9517C62.7034 86.0464 59.8159 89.3298 61.9947 91.2417C67.8375 96.3582 76.6028 96.3167 82.3953 91.1345C84.55 89.2051 81.6362 85.9414 79.4772 87.8751Z" fill="#FF808B"/>
<path d="M115.937 126.875C95.9017 126.875 90.1114 111.541 89.7307 102.637C97.7829 95.6987 101.957 85.2141 102.692 80.1784C105.424 78.7062 111.562 74.4209 111.562 65.625C111.562 60.2853 108.464 57.7894 104.999 57.0894V46.4953C104.999 41.9278 103.547 37.5944 100.799 33.9609C93.8498 24.7647 82.9473 19.6875 72.187 19.6875C51.1848 19.6875 39.3745 34.8644 39.3745 46.4953V57.0894C35.9095 57.7894 32.812 60.2853 32.812 65.625C32.812 74.4209 38.9479 78.7062 41.6823 80.1784C42.4195 85.2119 46.5932 95.6987 54.6432 102.635C54.2648 111.541 48.4745 126.875 28.437 126.875C25.5429 126.875 25.5407 131.25 28.437 131.25C49.8089 131.25 57.2945 116.198 58.7623 105.628C62.5664 107.914 67.0267 109.375 72.187 109.375C77.3473 109.375 81.8076 107.914 85.6117 105.628C87.0795 116.198 94.5673 131.25 115.937 131.25C118.833 131.25 118.831 126.875 115.937 126.875ZM100.465 44.4894C95.6261 39.8475 89.8051 36.4197 83.562 34.5231C85.172 32.375 85.8195 29.7347 85.1501 26.9369C91.7935 29.96 99.4673 36.2644 100.465 44.4894ZM78.2507 24.71C81.9082 26.4184 82.0132 31.5219 78.3032 33.32C65.5414 31.2638 52.9589 35.805 43.9092 44.4894C44.2548 41.6281 45.3026 38.9266 47.0636 36.5991C55.0939 25.9766 65.7557 22.2141 78.2507 24.71ZM45.937 78.75C45.937 77.8488 45.3857 77.0416 44.5457 76.7113C44.4714 76.685 37.187 73.745 37.187 65.625C37.187 64.5422 37.187 61.25 41.562 61.25C42.7695 61.25 43.7495 60.27 43.7495 59.0625V51.1C58.8192 32.6003 85.5482 32.5938 100.624 51.1V59.0625C100.624 60.27 101.602 61.25 102.812 61.25C107.187 61.25 107.187 64.5422 107.187 65.625C107.187 73.6641 100.121 76.5953 99.8282 76.7113C98.9904 77.0416 98.437 77.8488 98.437 78.75C98.437 83.9453 89.9954 105 72.187 105C54.3786 105 45.937 83.9453 45.937 78.75Z" fill="#FF808B"/>
<path d="M95.7849 67.9743C97.5678 65.6884 94.1093 62.9978 92.3375 65.2837C89.964 68.3265 85.425 68.8253 82.6271 65.4215C80.794 63.1837 77.41 65.964 79.2475 68.1997C83.6356 73.5393 91.5281 73.4365 95.7849 67.9743Z" fill="#FF808B"/>
<path d="M65.1254 68.1982C66.9651 65.9604 63.5789 63.1867 61.7458 65.4201C59.1317 68.5985 54.5686 68.5307 52.0354 65.2823C50.2614 63.0073 46.8029 65.6848 48.5858 67.9729C52.8558 73.446 60.7461 73.5313 65.1254 68.1982Z" fill="#FF808B"/>
<path d="M82.45 56.6313C84.351 54.8047 88.4394 54.6866 93.3766 56.3119C96.1241 57.211 97.4935 53.0591 94.7438 52.1557C85.6963 49.185 81.2644 51.7094 79.4204 53.4769C77.3029 55.5113 80.4004 58.6044 82.45 56.6313Z" fill="#FF808B"/>
<path d="M50.9944 56.3107C55.9338 54.6854 60.0179 54.8035 61.9232 56.6301C63.9751 58.601 67.0704 55.5079 64.9529 53.4735C63.1088 51.7038 58.6682 49.1838 49.6316 52.1523C46.8798 53.0557 48.2448 57.2098 50.9944 56.3107Z" fill="#FF808B"/>
<path d="M37.1875 96.251V98.4385C37.1875 101.335 41.5625 101.333 41.5625 98.4385V96.251C41.5625 93.3547 37.1875 93.3569 37.1875 96.251Z" fill="#FF808B"/>
<path d="M37.1875 109.373C37.1875 112.269 41.5625 112.267 41.5625 109.373V107.186C41.5625 104.289 37.1875 104.291 37.1875 107.186V109.373Z" fill="#FF808B"/>
<path d="M43.7495 105H45.937C48.8311 105 48.8332 100.625 45.937 100.625H43.7495C40.8554 100.625 40.8532 105 43.7495 105Z" fill="#FF808B"/>
<path d="M34.9995 100.625H32.812C29.9179 100.625 29.9157 105 32.812 105H34.9995C37.8936 105 37.8957 100.625 34.9995 100.625Z" fill="#FF808B"/>
<path d="M21.875 91.876C23.0825 91.876 24.0625 90.8981 24.0625 89.6885V87.501C24.0625 84.6047 19.6875 84.6069 19.6875 87.501V89.6885C19.6875 90.8981 20.6675 91.876 21.875 91.876Z" fill="#FF808B"/>
<path d="M21.875 96.25C20.6675 96.25 19.6875 97.2278 19.6875 98.4375V100.625C19.6875 103.521 24.0625 103.519 24.0625 100.625V98.4375C24.0625 97.2278 23.0825 96.25 21.875 96.25Z" fill="#FF808B"/>
<path d="M28.4375 96.2529C31.3316 96.2529 31.3337 91.8779 28.4375 91.8779H26.25C25.0425 91.8779 24.0625 92.8557 24.0625 94.0654C24.0625 95.2751 25.0425 96.2529 26.25 96.2529H28.4375Z" fill="#FF808B"/>
<path d="M17.4995 91.8779H15.312C12.4179 91.8779 12.4157 96.2529 15.312 96.2529H17.4995C18.707 96.2529 19.687 95.2751 19.687 94.0654C19.687 92.8557 18.707 91.8779 17.4995 91.8779Z" fill="#FF808B"/>
<path d="M107.188 105C107.188 103.79 106.21 102.812 105 102.812C103.79 102.812 102.812 103.79 102.812 105V107.188C102.812 110.084 107.188 110.082 107.188 107.188V105Z" fill="#FF808B"/>
<path d="M107.188 118.126V115.938C107.188 113.042 102.812 113.044 102.812 115.938V118.126C102.812 121.022 107.188 121.02 107.188 118.126Z" fill="#FF808B"/>
<path d="M109.374 113.75H111.562C114.458 113.75 114.456 109.375 111.562 109.375H109.374C106.478 109.375 106.48 113.75 109.374 113.75Z" fill="#FF808B"/>
<path d="M100.624 109.375H98.437C95.5407 109.375 95.5429 113.75 98.437 113.75H100.624C103.521 113.75 103.519 109.375 100.624 109.375Z" fill="#FF808B"/>
</svg>
