<svg width="140" height="140" viewBox="0 0 140 140" fill="none" xmlns="http://www.w3.org/2000/svg">
<path d="M129.537 71.8064C129.439 71.7123 119.824 62.2681 119.824 44.8343C119.824 34.6744 109.727 22.0386 95.8151 14.7882C79.668 6.37496 62.5794 6.78693 48.6477 15.8151L45.7612 13.5877C43.3673 11.7618 40.6317 10.4342 37.7161 9.68338C34.8004 8.93255 31.7639 8.77371 28.7858 9.21624C25.8078 9.65877 22.9486 10.6937 20.3772 12.2599C17.8059 13.826 15.5745 15.8917 13.815 18.3347C12.1079 20.7734 10.9135 23.5332 10.3041 26.447C9.69465 29.3608 9.68293 32.3679 10.2696 35.2864C10.8563 38.2048 12.0292 40.9738 13.7172 43.4257C15.4053 45.8777 17.5734 47.9615 20.0903 49.5511L26.4557 53.5688C26.3892 55.6681 26.455 57.7696 26.6526 59.8607C28.443 78.8823 40.327 95.4405 51.3959 101.464L44.5712 125.714C44.4268 126.269 44.5056 126.857 44.7907 127.354C45.0758 127.851 45.5445 128.216 46.096 128.371C46.6475 128.526 47.2378 128.459 47.74 128.183C48.2423 127.908 48.6163 127.446 48.7818 126.897L59.1276 90.1352C60.2996 90.8879 61.6172 91.3846 62.9943 91.593C64.3714 91.8013 65.777 91.7166 67.1191 91.3443C67.3957 91.2647 67.6537 91.1314 67.8786 90.9519C68.1035 90.7724 68.2907 90.5503 68.4296 90.2983C68.5685 90.0463 68.6563 89.7693 68.688 89.4834C68.7196 89.1974 68.6946 88.908 68.6142 88.6317C68.5338 88.3554 68.3997 88.0977 68.2195 87.8733C68.0394 87.649 67.8167 87.4624 67.5643 87.3242C67.3119 87.1861 67.0347 87.0991 66.7487 87.0682C66.4626 87.0374 66.1733 87.0633 65.8972 87.1445C62.0424 88.2575 58.1619 84.3909 56.0257 80.0544C52.3192 73.2211 53.3944 62.3803 61.8396 63.4215C65.3717 64.4877 68.0548 69.9222 68.7918 71.926C70.7059 75.5207 74.8118 71.4625 77.4959 69.053C82.04 64.4951 85.4118 58.9036 87.3225 52.7576C92.7186 35.8109 105.118 31.5653 108.95 30.6384C112.994 35.4175 115.449 40.4879 115.449 44.8343C115.25 54.9628 118.5 64.8581 124.666 72.8959L117.104 77.5849C116.713 77.8264 116.409 78.185 116.234 78.6095C116.059 79.0341 116.022 79.503 116.129 79.9497L118.331 89.2017L116.886 90.7035C115.814 91.6895 116.453 93.2241 116.906 94.3436C115.744 95.379 113.194 96.682 114.045 98.6054C114.565 99.7339 114.822 100.966 114.796 102.208C114.771 103.45 114.464 104.67 113.898 105.777C108.022 114.99 87.484 105.552 77.1307 100.477C76.617 100.209 76.0182 100.156 75.4654 100.329C74.9126 100.502 74.451 100.888 74.1818 101.4C73.9126 101.913 73.8578 102.512 74.0293 103.065C74.2009 103.619 74.5848 104.081 75.097 104.352C79.1442 106.462 83.3185 108.318 87.5958 109.91L79.6428 128.188C79.4252 128.718 79.4237 129.311 79.6387 129.842C79.8538 130.373 80.2682 130.798 80.7931 131.026C81.318 131.255 81.9116 131.269 82.4466 131.065C82.9815 130.861 83.4153 130.455 83.6547 129.935L91.7453 111.341C100.832 114.151 112.292 116.797 117.722 107.905C118.491 106.489 118.968 104.934 119.125 103.331C119.282 101.728 119.116 100.109 118.638 98.5713L120.871 96.764C122.234 95.7136 121.504 94.047 120.984 92.7543C121.735 91.8669 123.354 90.7433 122.863 89.3513L120.749 80.471L129.178 75.2458C129.458 75.0675 129.695 74.828 129.87 74.5452C130.045 74.2624 130.154 73.9437 130.189 73.6129C130.223 73.2821 130.183 72.9477 130.07 72.6349C129.957 72.3221 129.774 72.0388 129.537 71.8064ZM22.425 45.8512C1.99557 31.6407 23.0917 2.80852 43.0889 17.0529L44.9133 18.4606C42.505 20.3291 40.2639 22.4036 38.2152 24.6606L34.314 22.4808C33.8085 22.2108 33.2172 22.1499 32.6672 22.3112C32.1172 22.4726 31.6525 22.8433 31.373 23.3436C31.0935 23.844 31.0214 24.434 31.1723 24.987C31.3232 25.5399 31.6851 26.0115 32.18 26.3005L35.3711 28.0835C34.7082 28.9675 34.0854 29.8712 33.4942 30.7897L29.6794 28.6588C29.1739 28.389 28.5827 28.3283 28.0329 28.4897C27.4831 28.6511 27.0185 29.0217 26.7391 29.522C26.4596 30.0222 26.3875 30.6121 26.5383 31.1649C26.6891 31.7178 27.0507 32.1894 27.5454 32.4784L31.3179 34.5856C30.8168 35.5631 30.353 36.556 29.9264 37.5643L26.1931 35.4798C25.6875 35.2095 25.096 35.1485 24.5459 35.3099C23.9958 35.4713 23.5311 35.8423 23.2517 36.3429C22.9723 36.8435 22.9006 37.4337 23.052 37.9867C23.2034 38.5396 23.5658 39.011 24.0612 39.2994L28.4062 41.7254C27.7167 43.996 27.21 46.3183 26.8909 48.6698L22.425 45.8512ZM83.1548 51.4289C81.1702 57.9987 77.2469 63.8157 71.899 68.1171C69.2006 62.2649 62.347 55.0865 54.3692 61.1404C46.4006 67.0858 49.4808 80.3374 55.4608 87.0198L52.613 97.1392C29.0577 82.0722 19.9527 39.6884 49.7899 20.2853C72.5615 5.36151 93.9389 16.5281 105.583 27.083C99.61 29.1154 88.3832 35.0069 83.1548 51.4289Z" fill="#FF808B"/>
<path d="M101.686 64.0386C105.652 64.4904 109.726 60.7684 109.95 60.3641C110.327 59.9352 110.521 59.3757 110.492 58.8053C110.462 58.2349 110.21 57.6987 109.79 57.3113C109.371 56.9239 108.816 56.7161 108.245 56.7321C107.674 56.7481 107.132 56.9868 106.735 57.3971C105.503 58.7427 103.798 59.5582 101.977 59.6721C101.218 59.5386 100.5 59.2354 99.8743 58.7853C99.249 58.3351 98.7334 57.7496 98.366 57.0723C98.2034 56.8354 97.9957 56.6328 97.7548 56.4762C97.5139 56.3196 97.2444 56.2121 96.9619 56.1597C96.6794 56.1073 96.3893 56.1111 96.1082 56.171C95.8272 56.2308 95.5607 56.3455 95.324 56.5084C91.8321 59.5141 99.3379 64.2999 101.686 64.0386Z" fill="#FF808B"/>
<path d="M61.9121 81.7419C61.9317 82.4959 62.245 83.2125 62.7852 83.7389C63.3255 84.2652 64.0499 84.5598 64.8042 84.5598C65.5585 84.5598 66.283 84.2652 66.8232 83.7388C67.3634 83.2124 67.6767 82.4958 67.6962 81.7418C67.6766 80.9877 67.3634 80.2712 66.8231 79.7448C66.2829 79.2184 65.5584 78.9238 64.8041 78.9238C64.0498 78.9238 63.3254 79.2184 62.7852 79.7449C62.2449 80.2713 61.9317 80.9878 61.9121 81.7419Z" fill="#FF808B"/>
<path fill-rule="evenodd" clip-rule="evenodd" d="M72.0007 4C63.5034 4 55.4876 6.0366 48.4093 9.64652C47.4253 10.1484 46.2208 9.75749 45.719 8.7735C45.2172 7.78951 45.608 6.58501 46.592 6.08318C54.2201 2.19288 62.8572 0 72.0007 0C84.4204 0 95.9012 4.04546 105.189 10.8899C106.078 11.5452 106.268 12.7973 105.613 13.6865C104.958 14.5757 103.705 14.7653 102.816 14.1101C94.1923 7.75496 83.5379 4 72.0007 4Z" fill="#FF808B"/>
<path fill-rule="evenodd" clip-rule="evenodd" d="M31.7213 88.1119C35.3799 93.7236 39.9349 98.3924 45.0734 102.056C45.9728 102.697 46.1821 103.946 45.5408 104.846C44.8996 105.745 43.6507 105.954 42.7513 105.313C37.2125 101.364 32.3065 96.3335 28.3705 90.2964C22.3043 80.9918 19.3581 70.5479 19.2768 60.2038C19.2681 59.0992 20.1565 58.1968 21.261 58.1881C22.3655 58.1794 23.268 59.0678 23.2767 60.1723C23.3522 69.7743 26.0852 79.467 31.7213 88.1119Z" fill="#FF808B"/>
<path d="M27.7341 110.547C28.9416 110.547 29.9216 109.569 29.9216 108.359V106.172C29.9216 103.276 25.5466 103.278 25.5466 106.172V108.359C25.5466 109.569 26.5266 110.547 27.7341 110.547Z" fill="#FF808B"/>
<path d="M27.7341 114.921C26.5266 114.921 25.5466 115.899 25.5466 117.108V119.296C25.5466 122.192 29.9216 122.19 29.9216 119.296V117.108C29.9216 115.899 28.9416 114.921 27.7341 114.921Z" fill="#FF808B"/>
<path d="M34.2966 114.924C37.1907 114.924 37.1929 110.549 34.2966 110.549H32.1091C30.9016 110.549 29.9216 111.527 29.9216 112.736C29.9216 113.946 30.9016 114.924 32.1091 114.924H34.2966Z" fill="#FF808B"/>
<path d="M23.3601 110.549H21.1726C18.2785 110.549 18.2763 114.924 21.1726 114.924H23.3601C24.5676 114.924 25.5476 113.946 25.5476 112.736C25.5476 111.527 24.5676 110.549 23.3601 110.549Z" fill="#FF808B"/>
<path d="M16.7354 95.5473C17.9429 95.5473 18.9229 94.5695 18.9229 93.3598V91.1723C18.9229 88.2761 14.5479 88.2783 14.5479 91.1723V93.3598C14.5479 94.5695 15.5279 95.5473 16.7354 95.5473Z" fill="#FF808B"/>
<path d="M16.7354 99.9214C15.5279 99.9214 14.5479 100.899 14.5479 102.109V104.296C14.5479 107.193 18.9229 107.19 18.9229 104.296V102.109C18.9229 100.899 17.9429 99.9214 16.7354 99.9214Z" fill="#FF808B"/>
<path d="M23.2979 99.9243C26.1919 99.9243 26.1941 95.5493 23.2979 95.5493H21.1104C19.9029 95.5493 18.9229 96.5271 18.9229 97.7368C18.9229 98.9465 19.9029 99.9243 21.1104 99.9243H23.2979Z" fill="#FF808B"/>
<path d="M12.3598 95.5493H10.1723C7.27828 95.5493 7.27609 99.9243 10.1723 99.9243H12.3598C13.5673 99.9243 14.5473 98.9465 14.5473 97.7368C14.5473 96.5271 13.5673 95.5493 12.3598 95.5493Z" fill="#FF808B"/>
<path d="M121.735 15.5469C122.943 15.5469 123.923 14.569 123.923 13.3594V11.1719C123.923 8.27561 119.548 8.27779 119.548 11.1719V13.3594C119.548 14.569 120.528 15.5469 121.735 15.5469Z" fill="#FF808B"/>
<path d="M121.735 19.9209C120.528 19.9209 119.548 20.8987 119.548 22.1084V24.2959C119.548 27.1921 123.923 27.19 123.923 24.2959V22.1084C123.923 20.8987 122.943 19.9209 121.735 19.9209Z" fill="#FF808B"/>
<path d="M128.298 19.9238C131.192 19.9238 131.194 15.5488 128.298 15.5488H126.11C124.903 15.5488 123.923 16.5266 123.923 17.7363C123.923 18.946 124.903 19.9238 126.11 19.9238H128.298Z" fill="#FF808B"/>
<path d="M117.36 15.5488H115.172C112.278 15.5488 112.276 19.9238 115.172 19.9238H117.36C118.567 19.9238 119.547 18.946 119.547 17.7363C119.547 16.5266 118.567 15.5488 117.36 15.5488Z" fill="#FF808B"/>
</svg>
