<svg width="140" height="140" viewBox="0 0 140 140" fill="none" xmlns="http://www.w3.org/2000/svg">
<path d="M70 8.75049C38.3141 8.75049 24.0625 36.8927 24.0625 56.8755V83.1255C24.0625 86.0174 28.4375 86.0217 28.4375 83.1255V56.8755C28.4375 38.7083 41.3328 13.1255 70 13.1255C98.6672 13.1255 111.562 38.7083 111.562 56.8755V85.0396C111.562 87.9314 115.938 87.9358 115.938 85.0396V56.8755C115.938 36.8927 101.686 8.75049 70 8.75049Z" fill="#FF808B"/>
<path d="M28.4375 122.501V100.626C28.4375 97.7338 24.0625 97.7294 24.0625 100.626V122.501C24.0625 125.393 28.4375 125.397 28.4375 122.501Z" fill="#FF808B"/>
<path d="M111.562 100.626V122.501C111.562 125.393 115.938 125.397 115.938 122.501V100.626C115.938 97.7338 111.562 97.7294 111.562 100.626Z" fill="#FF808B"/>
<path d="M92.6886 106.899C90.5427 108.839 93.4739 112.085 95.6242 110.143C99.7849 106.378 103.462 101.574 106.277 96.3223L109.145 97.2016C109.92 97.4357 110.672 96.786 110.547 95.9876L108.815 84.8685C108.675 83.9673 107.537 83.6151 106.92 84.3063L99.4524 92.6013C98.9186 93.1941 99.1789 94.1435 99.9445 94.3798L102.023 95.0185C99.5005 99.5335 96.2871 103.646 92.6886 106.899Z" fill="#FF808B"/>
<path d="M77.2905 87.8754C73.1474 91.5832 66.8715 91.616 62.6912 87.9519C61.7812 87.1535 60.3987 87.2454 59.6046 88.1554C58.8084 89.0632 58.898 90.4457 59.808 91.2419C65.6465 96.3607 74.4162 96.3191 80.2087 91.1369C81.1099 90.3319 81.1843 88.9494 80.3793 88.0482C79.5743 87.1448 78.1918 87.0682 77.2905 87.8754Z" fill="#FF808B"/>
<path d="M113.75 126.874C93.7122 126.874 87.9218 111.54 87.5434 102.637C95.5956 95.6978 99.7693 85.2131 100.504 80.1796C103.239 78.7053 109.375 74.42 109.375 65.624C109.375 60.2843 106.277 57.7884 102.812 57.0884V46.4943C102.812 41.9268 101.36 37.5934 98.6122 33.96C91.8572 25.0218 81.1603 19.6865 69.9997 19.6865C57.5068 19.6865 48.9493 23.9543 41.3871 33.9578C38.6397 37.5912 37.1872 41.9268 37.1872 46.4921V57.0862C33.7221 57.7862 30.6246 60.2822 30.6246 65.6218C30.6246 74.4178 36.7606 78.7031 39.495 80.1775C40.2322 85.2109 44.4059 95.6956 52.4559 102.634C52.0775 111.54 46.2872 126.874 26.2496 126.874C23.3578 126.874 23.3534 131.249 26.2496 131.249C47.6215 131.249 55.1072 116.197 56.575 105.627C64.7234 110.525 74.9193 110.741 83.4243 105.627C84.8922 116.197 92.3778 131.249 113.75 131.249C116.642 131.249 116.646 126.874 113.75 126.874ZM95.1231 36.5981C96.884 38.9256 97.9296 41.625 98.2775 44.4862C93.4234 39.829 87.5784 36.3946 81.3134 34.5025C82.9081 32.3631 83.5643 29.714 82.8775 26.8965C87.6462 29.0512 91.9031 32.339 95.1231 36.5981ZM69.9997 24.0615C72.0122 24.0615 73.9984 24.3065 75.9518 24.6893C79.6268 26.3671 79.7778 31.4925 76.0547 33.3103C74.0531 32.9909 72.0318 32.8115 69.9997 32.8115C59.62 32.8115 49.4197 37.1034 41.7218 44.4884C42.0675 41.6271 43.1153 38.9256 44.8762 36.5981C51.6072 27.6928 58.885 24.0615 69.9997 24.0615ZM43.7497 78.749C43.7497 77.8478 43.1984 77.0384 42.3584 76.7103C42.284 76.6818 34.9997 73.7418 34.9997 65.624C34.9997 64.5412 34.9997 61.249 39.3747 61.249C40.5821 61.249 41.5622 60.269 41.5622 59.0615V51.099C48.665 42.3797 59.235 37.1865 69.9997 37.1865C80.7643 37.1865 91.3343 42.3797 98.4372 51.099V59.0615C98.4372 60.269 99.4172 61.249 100.625 61.249C105 61.249 105 64.5412 105 65.624C105 73.65 97.9559 76.5856 97.6322 76.7146C96.7987 77.045 96.2497 77.85 96.2497 78.749C96.2497 83.9443 87.8081 104.999 69.9997 104.999C52.1912 104.999 43.7497 83.9443 43.7497 78.749Z" fill="#FF808B"/>
<path d="M93.6005 67.9733C95.3768 65.6917 91.9402 63.0033 90.1508 65.2826C87.7971 68.3014 83.2624 68.8505 80.4405 65.4205C78.5986 63.1848 75.2233 65.9651 77.0608 68.1986C81.4489 73.5383 89.3371 73.4355 93.6005 67.9733Z" fill="#FF808B"/>
<path d="M62.9386 68.1977C64.7761 65.9643 61.3986 63.1861 59.5589 65.4196C56.6998 68.8999 52.1652 68.2524 49.8486 65.2818C48.068 63.0002 44.6205 65.693 46.3989 67.9724C50.6689 73.4455 58.5592 73.5308 62.9386 68.1977Z" fill="#FF808B"/>
<path d="M80.2636 56.6303C82.1668 54.8059 86.2508 54.6856 91.1924 56.3109C93.9574 57.2034 95.2983 53.0538 92.5574 52.1547C83.5208 49.1841 79.078 51.7084 77.2361 53.4759C75.1427 55.4841 78.2008 58.6122 80.2636 56.6303Z" fill="#FF808B"/>
<path d="M48.8073 56.3097C53.7466 54.6822 57.8329 54.8047 59.736 56.6291C61.7879 58.6 64.8832 55.5069 62.7657 53.4725C60.926 51.7028 56.481 49.1806 47.4445 52.1513C44.697 53.0525 46.0466 57.2044 48.8073 56.3097Z" fill="#FF808B"/>
<path d="M40.5473 92.6035L33.0791 84.3085C32.4645 83.6238 31.327 83.9629 31.1848 84.8707L29.4523 95.9897C29.3298 96.7794 30.0735 97.4422 30.8545 97.2038L33.7223 96.3244C36.5376 101.577 40.2148 106.38 44.3754 110.145C46.5235 112.085 49.457 108.841 47.311 106.901C43.7126 103.646 40.4991 99.5357 37.977 95.0185L40.0551 94.3797C40.8229 94.1435 41.0788 93.1941 40.5473 92.6035Z" fill="#FF808B"/>
</svg>
