<svg width="14" height="14" viewBox="0 0 14 14" fill="none" xmlns="http://www.w3.org/2000/svg">
<path d="M7.00016 13.6666C3.31826 13.6666 0.333496 10.6818 0.333496 6.99992C0.333496 3.31802 3.31826 0.333252 7.00016 0.333252C10.682 0.333252 13.6668 3.31802 13.6668 6.99992C13.6668 10.6818 10.682 13.6666 7.00016 13.6666ZM7.66683 6.99992V4.33325C7.66683 3.96506 7.36835 3.66659 7.00016 3.66659C6.63197 3.66659 6.3335 3.96506 6.3335 4.33325V7.93325C6.3335 8.15417 6.51258 8.33325 6.7335 8.33325H9.66683C10.035 8.33325 10.3335 8.03478 10.3335 7.66659C10.3335 7.2984 10.035 6.99992 9.66683 6.99992H7.66683Z" fill="current"/>
</svg>
