<svg width="18" height="19" viewBox="0 0 18 19" fill="none" xmlns="http://www.w3.org/2000/svg">
<path d="M8.25513 10.2456L1.08065 10.2457C0.884896 10.2456 0.711715 10.1726 0.561101 10.0267C0.410723 9.88081 0.335474 9.70539 0.335357 9.50045C0.335475 9.2955 0.408484 9.12008 0.554383 8.97418C0.700283 8.82828 0.875704 8.75527 1.08065 8.75515L8.25513 8.75533L8.25495 1.58085C8.25507 1.3851 8.32808 1.21192 8.47398 1.0613C8.61988 0.910924 8.7953 0.835676 9.00024 0.835558C9.20519 0.835676 9.38061 0.908685 9.52651 1.05458C9.67241 1.20048 9.74542 1.37591 9.74553 1.58085L9.74536 8.75533L16.9198 8.75515C17.1156 8.75527 17.2888 8.82828 17.4394 8.97418C17.5898 9.12008 17.665 9.2955 17.6651 9.50045C17.665 9.70539 17.592 9.88081 17.4461 10.0267C17.3002 10.1726 17.1248 10.2456 16.9198 10.2457L9.74536 10.2456L9.74554 17.42C9.74542 17.6158 9.67241 17.789 9.52651 17.9396C9.38061 18.09 9.20519 18.1652 9.00024 18.1653C8.7953 18.1652 8.61988 18.0922 8.47398 17.9463C8.32808 17.8004 8.25507 17.625 8.25495 17.42L8.25513 10.2456Z" fill="current"/>
</svg>
