<svg width="40" height="40" viewBox="0 0 40 40" fill="none" xmlns="http://www.w3.org/2000/svg">
<path fill-rule="evenodd" clip-rule="evenodd" d="M20 1.25C15.8612 1.25 12.5 4.61125 12.5 8.75C12.5 12.8888 15.8612 16.25 20 16.25C24.1388 16.25 27.5 12.8888 27.5 8.75C27.5 4.61125 24.1388 1.25 20 1.25ZM20 3.75C22.76 3.75 25 5.99 25 8.75C25 11.51 22.76 13.75 20 13.75C17.24 13.75 15 11.51 15 8.75C15 5.99 17.24 3.75 20 3.75Z" fill="#FF808B"/>
<path fill-rule="evenodd" clip-rule="evenodd" d="M10.015 23.045C9.95 23.0038 9.88125 22.9688 9.8075 22.9387C9.09375 22.6562 8.31625 22.5 7.5025 22.5H7.4975C4.0475 22.5 1.25 25.2975 1.25 28.7475V37.5C1.25 38.19 1.81 38.75 2.5 38.75H38.0363C38.7262 38.75 39.2863 38.19 39.2863 37.5V28.3925C39.2863 26.83 38.665 25.3313 37.56 24.2263C36.455 23.1213 34.9562 22.5 33.3937 22.5C32.4387 22.5 31.505 22.7325 30.6737 23.165C30.5413 23.2337 30.4275 23.3225 30.3312 23.425C27.8112 20.5587 24.1188 18.75 20.0025 18.75C20.0013 18.75 19.9988 18.75 19.9975 18.75C16.0662 18.75 12.5212 20.4 10.015 23.045ZM31.25 36.25H28.75H12.5H8.75V32.4975C8.75 26.2862 13.7863 21.25 19.9975 21.25H20.0025C26.2138 21.25 31.25 26.2862 31.25 32.4975V36.25ZM33.75 36.25H36.7863V28.3925C36.7863 27.4925 36.4287 26.63 35.7925 25.9938C35.1562 25.3575 34.2925 25 33.3937 25C32.8438 25 32.3062 25.1337 31.8263 25.3825C31.8113 25.3912 31.7962 25.3987 31.7812 25.405C33.0312 27.475 33.75 29.9025 33.75 32.4975V36.25ZM8.4025 25.1087C8.11375 25.0375 7.8125 25 7.5025 25H7.4975C5.4275 25 3.75 26.6775 3.75 28.7475V36.25H6.25V32.4975C6.25 29.7775 7.04 27.2425 8.4025 25.1087Z" fill="#FF808B"/>
<path fill-rule="evenodd" clip-rule="evenodd" d="M7.5 11.25C4.74 11.25 2.5 13.49 2.5 16.25C2.5 19.01 4.74 21.25 7.5 21.25C10.26 21.25 12.5 19.01 12.5 16.25C12.5 13.49 10.26 11.25 7.5 11.25ZM7.5 13.75C8.88 13.75 10 14.87 10 16.25C10 17.63 8.88 18.75 7.5 18.75C6.12 18.75 5 17.63 5 16.25C5 14.87 6.12 13.75 7.5 13.75Z" fill="#FF808B"/>
<path fill-rule="evenodd" clip-rule="evenodd" d="M33.3928 11.25C30.6341 11.25 28.3928 13.49 28.3928 16.25C28.3928 19.01 30.6341 21.25 33.3928 21.25C36.1528 21.25 38.3928 19.01 38.3928 16.25C38.3928 13.49 36.1528 11.25 33.3928 11.25ZM33.3928 13.75C34.7728 13.75 35.8928 14.87 35.8928 16.25C35.8928 17.63 34.7728 18.75 33.3928 18.75C32.0128 18.75 30.8928 17.63 30.8928 16.25C30.8928 14.87 32.0128 13.75 33.3928 13.75Z" fill="#FF808B"/>
</svg>
