<svg width="16" height="16" viewBox="0 0 16 16" fill="none" xmlns="http://www.w3.org/2000/svg">
<path d="M7.9999 5.99663C9.106 5.99663 10.0037 5.10093 10.0037 3.99283V1.98903C10.0037 -0.664011 5.99609 -0.662007 5.99609 1.98903V3.99283C5.99609 5.10093 6.8938 5.99663 7.9999 5.99663Z" fill="#FF808B"/>
<path d="M7.9999 10.0034C6.8938 10.0034 5.99609 10.8991 5.99609 12.0072V14.011C5.99609 16.6641 10.0037 16.6621 10.0037 14.011V12.0072C10.0037 10.8991 9.106 10.0034 7.9999 10.0034Z" fill="#FF808B"/>
<path d="M14.0113 10.0052C16.6623 10.0052 16.6643 5.99756 14.0113 5.99756H12.0075C10.9014 5.99756 10.0037 6.89326 10.0037 8.00136C10.0037 9.10947 10.9014 10.0052 12.0075 10.0052H14.0113Z" fill="#FF808B"/>
<path d="M3.99234 5.99756H1.98854C-0.662495 5.99756 -0.664499 10.0052 1.98854 10.0052H3.99234C5.09844 10.0052 5.99615 9.10947 5.99615 8.00136C5.99615 6.89326 5.09844 5.99756 3.99234 5.99756Z" fill="#FF808B"/>
</svg>
