<svg width="40" height="40" viewBox="0 0 40 40" fill="none" xmlns="http://www.w3.org/2000/svg">
<path d="M21.0274 10C22.1528 10.0019 22.7231 10.0078 23.2159 10.0225L23.41 10.0288C23.6342 10.0368 23.8554 10.0468 24.1221 10.0593C25.1862 10.1085 25.9121 10.2768 26.5496 10.5243C27.2087 10.7785 27.7654 11.1218 28.3212 11.6776C28.8762 12.2335 29.2196 12.7918 29.4746 13.4493C29.7212 14.086 29.8896 14.8126 29.9396 15.8768C29.9515 16.1435 29.9611 16.3647 29.969 16.5889L29.9753 16.783C29.9899 17.2757 29.9966 17.8461 29.9987 18.9716L29.9995 19.7172C29.9996 19.8083 29.9996 19.9023 29.9996 19.9993L29.9995 20.2814L29.9989 21.0271C29.997 22.1525 29.9911 22.7229 29.9764 23.2156L29.97 23.4097C29.9621 23.634 29.9521 23.8552 29.9396 24.1218C29.8904 25.186 29.7212 25.9118 29.4746 26.5493C29.2204 27.2085 28.8762 27.7652 28.3212 28.321C27.7654 28.876 27.2062 29.2193 26.5496 29.4743C25.9121 29.721 25.1862 29.8893 24.1221 29.9393C23.8554 29.9512 23.6342 29.9609 23.41 29.9687L23.2159 29.975C22.7231 29.9897 22.1528 29.9963 21.0274 29.9985L20.2817 29.9993C20.1906 29.9993 20.0966 29.9993 19.9996 29.9993H19.7175L18.9718 29.9986C17.8464 29.9968 17.276 29.9908 16.7832 29.9761L16.5892 29.9698C16.3649 29.9618 16.1437 29.9518 15.877 29.9393C14.8129 29.8902 14.0879 29.721 13.4495 29.4743C12.7912 29.2202 12.2337 28.876 11.6779 28.321C11.122 27.7652 10.7795 27.206 10.5245 26.5493C10.277 25.9118 10.1095 25.186 10.0595 24.1218C10.0477 23.8552 10.038 23.634 10.0301 23.4097L10.0238 23.2156C10.0092 22.7229 10.0025 22.1525 10.0004 21.0271L10.0002 18.9716C10.0021 17.8461 10.0081 17.2757 10.0227 16.783L10.0291 16.5889C10.037 16.3647 10.047 16.1435 10.0595 15.8768C10.1087 14.8118 10.277 14.0868 10.5245 13.4493C10.7787 12.791 11.122 12.2335 11.6779 11.6776C12.2337 11.1218 12.792 10.7793 13.4495 10.5243C14.087 10.2768 14.812 10.1093 15.877 10.0593C16.1437 10.0474 16.3649 10.0377 16.5892 10.0299L16.7832 10.0236C17.276 10.009 17.8464 10.0023 18.9718 10.0001L21.0274 10ZM19.9996 14.9993C17.2366 14.9993 14.9995 17.2388 14.9995 19.9993C14.9995 22.7622 17.2391 24.9993 19.9996 24.9993C22.7625 24.9993 24.9996 22.7598 24.9996 19.9993C24.9996 17.2364 22.76 14.9993 19.9996 14.9993ZM19.9996 16.9993C21.6565 16.9993 22.9996 18.342 22.9996 19.9993C22.9996 21.6562 21.6569 22.9993 19.9996 22.9993C18.3427 22.9993 16.9995 21.6567 16.9995 19.9993C16.9995 18.3424 18.3422 16.9993 19.9996 16.9993ZM25.2496 13.4993C24.5603 13.4993 23.9996 14.0592 23.9996 14.7484C23.9996 15.4377 24.5595 15.9985 25.2496 15.9985C25.9388 15.9985 26.4996 15.4386 26.4996 14.7484C26.4996 14.0592 25.9379 13.4984 25.2496 13.4993Z" fill="#71717A"/>
</svg>
