<svg width="40" height="40" viewBox="0 0 40 40" fill="none" xmlns="http://www.w3.org/2000/svg">
<path d="M19.9999 10.3506C25.7989 10.3506 30.5 14.015 30.5 18.5353C30.5 23.0556 25.7989 26.72 19.9999 26.72C19.4117 26.72 18.8351 26.6816 18.2732 26.6092L13.8651 29.4925C13.3637 29.7579 13.1867 29.7284 13.3931 29.0795L14.2847 25.4019C11.4047 23.9425 9.5 21.4125 9.5 18.5353C9.5 14.015 14.201 10.3506 19.9999 10.3506ZM25.907 18.4097L27.3773 16.9868C27.5646 16.8054 27.5695 16.5068 27.3883 16.3194C27.2071 16.1323 26.9084 16.1273 26.7209 16.3085L24.7927 18.1745V16.6328C24.7927 16.3723 24.5815 16.161 24.3208 16.161C24.0603 16.161 23.8489 16.3723 23.8489 16.6328V19.1899C23.8311 19.2629 23.8315 19.3385 23.8489 19.4117V20.8506C23.8489 21.1112 24.0603 21.3225 24.3208 21.3225C24.5815 21.3225 24.7927 21.1112 24.7927 20.8506V19.4879L25.2203 19.0742L26.6481 21.1071C26.74 21.2379 26.8863 21.3079 27.0347 21.3079C27.1285 21.3079 27.2231 21.2799 27.3056 21.222C27.5189 21.0723 27.5703 20.7779 27.4205 20.5646L25.907 18.4097ZM22.9493 20.3345H21.4894V16.6476C21.4894 16.3871 21.2781 16.1757 21.0174 16.1757C20.7569 16.1757 20.5457 16.3871 20.5457 16.6476V20.8063C20.5457 21.067 20.7569 21.2782 21.0174 21.2782H22.9493C23.21 21.2782 23.4212 21.067 23.4212 20.8063C23.4212 20.5458 23.21 20.3345 22.9493 20.3345ZM17.0922 19.2431L17.7882 17.5355L18.4255 19.2431H17.0922ZM19.6149 19.7308C19.6151 19.7254 19.6165 19.7205 19.6165 19.7151C19.6165 19.5911 19.5677 19.4793 19.4896 19.3951L18.4442 16.5943C18.3458 16.3145 18.0995 16.1287 17.8166 16.1209C17.5385 16.1134 17.2797 16.2873 17.1635 16.5673L15.5025 20.643C15.4042 20.8843 15.5201 21.1598 15.7614 21.2582C16.0028 21.3566 16.2782 21.2406 16.3765 20.9992L16.7075 20.187H18.7777L19.076 20.9862C19.1469 21.176 19.3268 21.2932 19.5183 21.2931C19.5731 21.2931 19.6288 21.2835 19.6832 21.2632C19.9274 21.1722 20.0514 20.9003 19.9602 20.656L19.6149 19.7308ZM16.2935 16.6525C16.2935 16.392 16.0821 16.1806 15.8216 16.1806H12.5772C12.3166 16.1806 12.1052 16.392 12.1052 16.6525C12.1052 16.9131 12.3166 17.1244 12.5772 17.1244H13.7373V20.8605C13.7373 21.1211 13.9486 21.3323 14.2091 21.3323C14.4698 21.3323 14.6811 21.1211 14.6811 20.8605V17.1244H15.8216C16.0821 17.1244 16.2935 16.9131 16.2935 16.6525Z" fill="#71717A"/>
</svg>
