<svg width="16" height="17" viewBox="0 0 16 17" fill="none" xmlns="http://www.w3.org/2000/svg">
<path fill-rule="evenodd" clip-rule="evenodd" d="M0.25 8.5C0.25 8.08579 0.585786 7.75 1 7.75H15C15.4142 7.75 15.75 8.08579 15.75 8.5C15.75 8.91421 15.4142 9.25 15 9.25H1C0.585786 9.25 0.25 8.91421 0.25 8.5Z" fill="#52525B"/>
<path fill-rule="evenodd" clip-rule="evenodd" d="M8 0.75C8.41421 0.75 8.75 1.08579 8.75 1.5L8.75 15.5C8.75 15.9142 8.41421 16.25 8 16.25C7.58579 16.25 7.25 15.9142 7.25 15.5L7.25 1.5C7.25 1.08579 7.58579 0.75 8 0.75Z" fill="#52525B"/>
</svg>
