<svg width="40" height="40" viewBox="0 0 40 40" fill="none" xmlns="http://www.w3.org/2000/svg">
<path fill-rule="evenodd" clip-rule="evenodd" d="M37.1791 22.4878C36.6041 21.9704 35.7232 21.9987 35.1826 22.5523L27.2235 30.702C27.1451 30.7823 27.058 30.8489 26.9651 30.9019C26.3475 31.4364 25.5422 31.7598 24.6618 31.7598H16.4376C15.7904 31.7598 15.2657 31.2352 15.2657 30.588C15.2657 29.9407 15.7904 29.4161 16.4376 29.4161H24.6618C25.3233 29.4161 25.8577 28.8699 25.8392 28.2045C25.8222 27.5917 25.2907 27.0614 24.6126 27.0614H17.6139C17.2177 27.0614 16.8484 26.8612 16.6321 26.5293L16.3873 26.1537C16.3873 26.1537 16.3873 26.1537 16.3873 26.1537C15.2918 24.4728 13.4216 23.4592 11.4156 23.4592C9.17509 23.4592 7.12544 24.7214 6.11661 26.7225C6.1166 26.7225 6.11662 26.7224 6.11661 26.7225L5.7377 27.4742C5.53853 27.8693 5.13376 28.1186 4.69125 28.1186H2.34375V35.2501H26.5274L37.2325 24.5797C37.8179 23.9962 37.7935 23.0407 37.1791 22.4878ZM27.836 26.7203L33.5058 20.9147C34.9247 19.4619 37.2372 19.3871 38.7468 20.7456C40.3607 22.1977 40.4247 24.7071 38.8871 26.2397L27.839 37.252C27.6194 37.471 27.3219 37.5939 27.0117 37.5939H1.17188C0.524666 37.5939 0 37.0692 0 36.422V26.9467C0 26.2995 0.524666 25.7748 1.17188 25.7748H3.96961L4.0237 25.6675C5.43082 22.8763 8.28993 21.1155 11.4156 21.1155C14.1513 21.1155 16.7058 22.4667 18.2464 24.7176H24.6126C25.9994 24.7176 27.2517 25.5194 27.836 26.7203Z" fill="#FF808B"/>
<path fill-rule="evenodd" clip-rule="evenodd" d="M20 4.37805C17.2566 1.47079 12.6379 1.84439 10.6931 5.05448C9.699 6.69522 9.66073 8.71721 9.98604 10.4698C10.3146 12.2398 11.0507 13.9451 11.8695 15.1023C13.347 17.1904 15.2899 18.6262 16.8301 19.5332C17.605 19.9896 18.2914 20.3198 18.7879 20.5375C19.0366 20.6465 19.2386 20.7277 19.3816 20.7827C19.4531 20.8102 19.51 20.8312 19.5506 20.8459L19.5992 20.8632L19.614 20.8684L19.619 20.8701L19.6209 20.8707C19.6212 20.8708 19.6223 20.8712 20 19.7619L19.6209 20.8707C19.8657 20.9541 20.1327 20.9546 20.3776 20.8712L20 19.7619C20.3776 20.8712 20.3773 20.8713 20.3776 20.8712L20.3809 20.8701L20.3859 20.8684L20.4008 20.8632L20.4493 20.8459C20.4899 20.8312 20.5468 20.8102 20.6183 20.7827C20.7613 20.7277 20.9634 20.6465 21.212 20.5375C21.7085 20.3198 22.3949 19.9896 23.1699 19.5332C24.71 18.6263 26.6529 17.1905 28.1303 15.1024C28.9492 13.9452 29.6853 12.2398 30.0138 10.4698C30.3391 8.71728 30.3008 6.6953 29.3068 5.05454C27.362 1.84447 22.7433 1.4708 20 4.37805ZM20 18.5062C19.9204 18.4734 19.8296 18.4351 19.7289 18.3909C19.3019 18.2037 18.7006 17.9148 18.0193 17.5136C16.647 16.7055 15.003 15.4731 13.7828 13.7485C13.1738 12.8879 12.5617 11.5034 12.2904 10.042C12.0159 8.56316 12.1262 7.21217 12.6976 6.26895C13.9004 4.28365 17.3441 3.99496 18.9763 6.92375C19.1832 7.29501 19.5749 7.52514 20 7.52514C20.425 7.52514 20.8167 7.29501 21.0236 6.92375C22.6558 3.99497 26.0995 4.28371 27.3022 6.26899C27.8737 7.21222 27.9839 8.56324 27.7094 10.0421C27.4382 11.5035 26.8261 12.888 26.2171 13.7485C24.9969 15.4731 23.3529 16.7055 21.9806 17.5136C21.2993 17.9148 20.6981 18.2037 20.271 18.3909C20.1703 18.4351 20.0796 18.4734 20 18.5062Z" fill="#FF808B"/>
</svg>
