<svg width="40" height="40" viewBox="0 0 40 40" fill="none" xmlns="http://www.w3.org/2000/svg">
<g clip-path="url(#clip0_2253_793)">
<path d="M37.2308 27.3546C41.5681 21.4506 39.8441 21.4906 33.6001 21.9946C35.4081 18.7266 35.3787 14.6319 33.7148 11.3132C33.5134 10.9066 33.0614 10.6866 32.6174 10.7799C31.0681 11.1146 29.5694 11.6532 28.1614 12.3799C28.4974 7.22923 24.9708 2.56523 20.4401 0.434566C20.1614 0.2959 19.8334 0.2959 19.5534 0.434566C16.4188 1.95857 13.7201 4.57857 12.5121 7.8879C12.0761 9.1199 13.9414 9.79723 14.3934 8.5679C15.3628 5.89323 17.5148 3.77057 20.0001 2.45323C24.0881 4.50123 26.9974 9.07057 26.0001 13.7026C23.2028 15.6852 21.0854 18.5759 20.0001 21.8266C18.1748 16.2092 13.1454 11.9519 7.39075 10.7879C6.94542 10.6932 6.49342 10.9132 6.29208 11.3212C4.60675 14.6332 4.60542 18.7252 6.40008 21.9946C0.133417 21.4892 -1.54792 21.4439 2.77475 27.3466C-5.19858 34.1732 7.52808 39.8932 20.0001 39.6612C32.4668 39.8959 45.1948 34.1719 37.2308 27.3546ZM36.4428 23.8199C36.6854 23.8199 36.9268 23.8066 37.1694 23.8199C34.4454 29.3106 27.7214 32.1599 21.9014 30.1532C25.6214 26.0639 30.9134 23.7586 36.4428 23.8199ZM24.7734 17.4772C26.7654 15.2612 29.3641 13.6786 32.2481 12.9279C33.5614 16.0866 33.0254 19.8439 30.9068 22.5212C27.1428 23.4212 23.7174 25.4706 20.9988 28.2092C20.8801 24.2879 22.2268 20.4626 24.7734 17.4772ZM7.75342 12.9279C14.5601 14.5586 19.3081 21.2799 18.9961 28.2052C16.2774 25.4666 12.8521 23.4172 9.08675 22.5172C6.97875 19.8372 6.43742 16.0866 7.75342 12.9279ZM3.05208 23.8172C8.68808 23.6092 14.3161 25.9719 18.1041 30.1532C12.2828 32.1359 5.54142 29.3359 2.83608 23.8172H3.05208ZM20.0001 37.6612C9.58808 37.6612 2.33342 34.3799 2.33342 31.4346C2.49742 30.3332 3.16275 29.3706 4.13342 28.8266C4.20808 28.8946 4.26808 28.9826 4.35608 29.0306C6.98008 31.4346 10.5054 32.8079 14.0654 32.7919C16.2908 32.9679 18.3054 31.9546 20.2588 31.6919C25.3588 33.7972 31.5761 32.8026 35.6334 29.0226C35.7241 28.9746 35.7801 28.8879 35.8561 28.8212C36.8388 29.3572 37.5107 30.3266 37.6668 31.4346C37.6668 34.3799 30.4121 37.6612 20.0001 37.6612Z" fill="#FF808B"/>
</g>
<defs>
<clipPath id="clip0_2253_793">
<rect width="40" height="40" fill="white"/>
</clipPath>
</defs>
</svg>
