<svg width="40" height="40" viewBox="0 0 40 40" fill="none" xmlns="http://www.w3.org/2000/svg">
<path d="M20.2444 12C20.7785 12.0029 22.1148 12.0159 23.5346 12.0727L24.038 12.0947C25.4675 12.1624 26.8958 12.278 27.6042 12.4755C28.5491 12.741 29.2918 13.5155 29.5428 14.4973C29.9425 16.0564 29.9925 19.0994 29.9987 19.8358L29.9996 19.9884V19.9991C29.9996 19.9991 29.9996 20.0028 29.9996 20.0099L29.9987 20.1625C29.9925 20.8989 29.9425 23.9419 29.5428 25.501C29.2883 26.4864 28.5456 27.261 27.6042 27.5228C26.8958 27.7203 25.4675 27.8359 24.038 27.9036L23.5346 27.9255C22.1148 27.9824 20.7785 27.9953 20.2444 27.9983L20.01 27.9991H19.9996C19.9996 27.9991 19.9961 27.9991 19.9892 27.9991L19.755 27.9983C18.6246 27.9921 13.8982 27.941 12.395 27.5228C11.4501 27.2573 10.7074 26.4828 10.4564 25.501C10.0567 23.9419 10.0067 20.8989 10.0005 20.1625V19.8358C10.0067 19.0994 10.0567 16.0564 10.4564 14.4973C10.7109 13.5119 11.4536 12.7373 12.395 12.4755C13.8982 12.0572 18.6246 12.0062 19.755 12H20.2444ZM17.9996 16.4991V23.4991L23.9996 19.9991L17.9996 16.4991Z" fill="#71717A"/>
</svg>
